<?xml version="1.0"?>
<svg xmlns="http://www.w3.org/2000/svg" id="Capa_1" enable-background="new 0 0 512 512" height="512px" viewBox="0 0 512 512" width="512px"><g><g><g><path d="m395.308 270.94c-63.241 0-114.691 51.827-114.691 115.53s51.45 115.53 114.691 115.53 114.692-51.827 114.692-115.53-51.451-115.53-114.692-115.53zm0 211.06c-52.213 0-94.691-42.854-94.691-95.53s42.479-95.53 94.691-95.53c52.213 0 94.692 42.854 94.692 95.53s-42.478 95.53-94.692 95.53z" fill="#FFFFFF"/><path d="m437.353 355.09h-10.842v-11.022c0-11.441-9.27-20.75-20.665-20.75h-21.076c-11.394 0-20.664 9.308-20.664 20.75v11.022h-10.842c-11.394 0-20.664 9.309-20.664 20.75v21.261c0 11.441 9.27 20.75 20.664 20.75h10.842v11.022c0 11.441 9.27 20.75 20.664 20.75h21.076c11.395 0 20.665-9.308 20.665-20.75v-11.023h10.842c11.394 0 20.664-9.308 20.664-20.75v-21.26c0-11.442-9.27-20.75-20.664-20.75zm.664 42.011c0 .413-.298.75-.664.75h-20.842c-5.523 0-10 4.477-10 10v21.022c0 .413-.298.75-.665.75h-21.076c-.366 0-.664-.336-.664-.75v-21.023c0-5.523-4.477-10-10-10h-20.842c-.366 0-.664-.336-.664-.75v-21.26c0-.414.298-.75.664-.75h20.842c5.523 0 10-4.477 10-10v-21.022c0-.413.298-.75.664-.75h21.076c.366 0 .665.336.665.75v21.022c0 5.523 4.477 10 10 10h20.842c.366 0 .664.336.664.75z" fill="#FFFFFF"/><path d="m307.461 128.691-67.378 67.434c-2.485 2.488-3.481 6.098-2.624 9.507l4.835 19.222c.872 3.467 3.528 6.205 6.968 7.181l18.689 5.304-7.225 18.557c-1.159 2.976-.827 6.325.893 9.016 1.721 2.69 4.622 4.397 7.809 4.593l41.485 2.559c.206.013.411.019.616.019 2.645 0 5.192-1.049 7.074-2.932l64.6-64.654c.255.263.513.524.772.784 14.142 14.154 32.946 21.949 52.947 21.949s38.805-7.795 52.946-21.949c29.189-29.212 29.189-76.745.001-105.958-14.861-14.873-34.861-22.624-55.407-21.925.707-20.555-7.044-40.578-21.902-55.449-14.143-14.154-32.947-21.949-52.948-21.949s-38.805 7.795-52.947 21.949c-29.188 29.213-29.188 76.745 0 105.958.264.263.529.525.796.784zm13.353-92.606c10.363-10.373 24.143-16.085 38.798-16.085s28.435 5.712 38.798 16.085c13.297 13.308 18.829 32.246 14.798 50.661-.729 3.33.288 6.801 2.699 9.211 2.41 2.409 5.881 3.423 9.211 2.696 18.395-4.033 37.308 1.503 50.601 14.808 21.4 21.418 21.4 56.267 0 77.685-10.364 10.373-24.143 16.085-38.798 16.085-14.656 0-28.435-5.712-38.799-16.086-2.233-2.235-4.28-4.665-6.084-7.223-1.701-2.412-4.379-3.949-7.319-4.201-2.94-.253-5.841.808-7.927 2.895l-69.15 69.208-23.31-1.438 6.244-16.038c1.022-2.624.89-5.559-.364-8.081s-3.514-4.398-6.224-5.167l-23.708-6.728-2.043-8.122 71.098-71.156c2.084-2.085 3.141-4.984 2.889-7.921-.251-2.937-1.786-5.614-4.193-7.315-2.557-1.806-4.985-3.855-7.217-6.089-21.401-21.416-21.401-56.266 0-77.684z" fill="#FFFFFF"/><path d="m176.776 190.918c1.953 1.952 4.512 2.929 7.071 2.929s5.119-.977 7.071-2.929c3.905-3.905 3.905-10.237 0-14.143l-12.244-12.244c-3.905-3.904-10.237-3.904-14.143 0-3.905 3.905-3.905 10.237 0 14.143z" fill="#FFFFFF"/><path d="m141.526 254.216h17.315c5.523 0 10-4.477 10-10s-4.477-10-10-10h-17.315c-5.523 0-10 4.477-10 10s4.477 10 10 10z" fill="#FFFFFF"/><path d="m244.216 168.841c5.523 0 10-4.477 10-10v-17.315c0-5.523-4.477-10-10-10s-10 4.477-10 10v17.315c0 5.523 4.478 10 10 10z" fill="#FFFFFF"/><path d="m270.62 293.661-27.811-1.715 6.244-16.037c1.022-2.625.89-5.559-.364-8.081s-3.514-4.398-6.224-5.167l-23.708-6.728-3.425-13.619c-.878-3.492-3.566-6.243-7.037-7.201s-7.189.024-9.735 2.571l-69.761 69.82c-.255-.264-.513-.525-.772-.784-14.142-14.154-32.946-21.949-52.947-21.949s-38.805 7.795-52.946 21.949c-29.189 29.213-29.189 76.745 0 105.958 14.86 14.873 34.854 22.642 55.407 21.925-.707 20.555 7.044 40.578 21.902 55.449 14.141 14.153 32.944 21.948 52.945 21.948s38.805-7.795 52.947-21.949c29.188-29.213 29.188-76.745-.001-105.958-.352-.353-.708-.701-1.067-1.046 3.894-3.906 3.891-10.229-.011-14.131-3.905-3.905-10.237-3.905-14.143 0l-7.632 7.632c-3.092 3.092-3.816 7.834-1.789 11.708l.186.355c.735 1.405 1.794 2.615 3.09 3.53 2.556 1.806 4.985 3.855 7.217 6.089 21.4 21.417 21.4 56.267 0 77.685-10.362 10.373-24.141 16.085-38.797 16.085-14.655 0-28.435-5.712-38.798-16.085-13.297-13.308-18.829-32.247-14.798-50.66.729-3.329-.288-6.801-2.699-9.211s-5.881-3.426-9.211-2.696c-18.392 4.033-37.309-1.504-50.602-14.808-21.4-21.418-21.4-56.267.001-77.685 10.364-10.373 24.143-16.085 38.798-16.085 14.656 0 28.435 5.712 38.799 16.085 2.233 2.235 4.28 4.665 6.084 7.223 1.701 2.412 4.379 3.949 7.319 4.201 2.939.25 5.841-.808 7.927-2.896l65.029-65.083.532 2.113c.872 3.467 3.528 6.205 6.968 7.181l18.689 5.304-7.225 18.556c-1.159 2.976-.827 6.326.894 9.016s4.622 4.397 7.809 4.593l23.223 1.432c.101 2.32 1.007 4.615 2.729 6.434 3.795 4.01 10.125 4.184 14.137.387l8.887-8.414c2.892-2.738 3.884-6.931 2.525-10.674-1.36-3.742-4.811-6.322-8.785-6.567z" fill="#FFFFFF"/><path d="m238.26 340.33c-1.612-3.932-5.715-6.453-9.949-6.147-4.156.3-7.748 3.223-8.896 7.225-1.15 4.007.387 8.443 3.783 10.868 3.361 2.4 7.935 2.475 11.372.185 3.917-2.611 5.503-7.78 3.69-12.131z" fill="#FFFFFF"/></g></g></g></svg>
