<?xml version="1.0" encoding="iso-8859-1"?>
<!-- Generator: Adobe Illustrator 19.0.0, SVG Export Plug-In . SVG Version: 6.00 Build 0)  -->
<svg version="1.1" id="Capa_1" xmlns="http://www.w3.org/2000/svg" xmlns:xlink="http://www.w3.org/1999/xlink" x="0px" y="0px"
	 viewBox="0 0 316.4 316.4" style="enable-background:new 0 0 316.4 316.4;" xml:space="preserve">
<g>
	<g>
		<path d="M158,126.8c-40.4,0-73.2,32.8-73.2,72.8c0,40.4,32.8,72.8,73.2,73.2c40.4-0.4,73.2-33.2,73.2-73.2
			C231.2,159.2,198.4,126.8,158,126.8z M163.6,261.2v-9.6c0-3.2-2.4-5.6-5.6-5.6s-5.6,2.4-5.6,5.6v9.6c-30-2.8-53.6-26.4-56.4-56.4
			h9.6c3.2,0,5.6-2.4,5.6-5.6s-2.4-5.6-5.6-5.6H96c2.8-30,26.4-53.6,56.4-56.4v9.6c0,3.2,2.4,5.6,5.6,5.6s5.6-2.4,5.6-5.6v-9.6
			c30,2.8,53.6,26.4,56.4,56.4h-9.6c-3.2,0-5.6,2.4-5.6,5.6s2.4,5.6,5.6,5.6h9.6C217.2,234.8,193.2,258.8,163.6,261.2z"/>
	</g>
</g>
<g>
	<g>
		<path d="M158,153.2c-3.2,0-5.6,2.4-5.6,5.6v38.8l-14,16.8c-2,2.4-1.6,5.6,0.8,7.6c1.2,0.8,2.4,1.2,3.6,1.2c1.6,0,3.2-0.8,4-2
			l15.2-18.4c0.8-0.8,1.2-2.4,1.2-3.6v-40.4C163.6,156,161.2,153.2,158,153.2z"/>
	</g>
</g>
<g>
	<g>
		<path d="M272.4,25.6h-3.6v-6C268.8,8.8,260,0,249.2,0s-19.6,8.8-19.6,19.6v6H86.8v-6C86.8,8.8,78,0,67.2,0S47.6,8.8,47.6,19.6v6
			H44c-17.2,0-31.2,14-31.2,31.2v228.4c0,17.2,14,31.2,31.2,31.2h228.4c17.2,0,31.2-14,31.2-31.2V56.4
			C303.6,39.2,289.6,25.6,272.4,25.6z M240,31.2V19.6c0.4-5.2,4-8.8,8.8-8.8s8.8,4,8.8,8.8v23.2c0,4.8-4,8.8-8.8,8.8s-8.8-4-8.8-8.8
			V31.2z M58.4,31.2V19.6c0-5.2,4-8.8,8.8-8.8s8.8,4,8.8,8.8v23.2c0,4.8-4,8.8-8.8,8.8s-8.8-4-8.8-8.8V31.2z M292,284.8
			c0.4,11.6-8.4,20.4-19.6,20.4H43.6c-11.2,0-20.4-9.2-20.4-20.4V100.4H292V284.8z M292.4,90H23.6V56.8c0-11.2,8.8-20.4,20-20.4h3.6
			v6C47.2,53.2,56,62,66.8,62c10.8,0,19.6-8.8,19.6-19.6v-6h142.8v6c0,10.8,8.8,19.6,19.6,19.6c10.8,0,19.6-8.8,19.6-19.6v-6h3.6
			c11.2,0,20.4,9.2,20.4,20.4V90z"/>
	</g>
</g>
<g>
</g>
<g>
</g>
<g>
</g>
<g>
</g>
<g>
</g>
<g>
</g>
<g>
</g>
<g>
</g>
<g>
</g>
<g>
</g>
<g>
</g>
<g>
</g>
<g>
</g>
<g>
</g>
<g>
</g>
</svg>
