<?xml version="1.0"?>
<svg xmlns="http://www.w3.org/2000/svg" id="Capa_1" enable-background="new 0 0 513.011 513.011" height="512px" viewBox="0 0 513.011 513.011" width="512px"><g><path d="m50.693 389.339c-2.792-3.059-7.535-3.275-10.596-.483-25.112 22.923-39.516 55.55-39.516 89.515v26.949c0 4.142 3.357 7.5 7.5 7.5s7.5-3.358 7.5-7.5v-26.949c0-29.76 12.622-58.349 34.629-78.436 3.059-2.793 3.276-7.537.483-10.596z" fill="#023364"/><path d="m120.827 447.773h-61.777c-7.016 0-12.723 5.708-12.723 12.723v23.038c0 7.015 5.707 12.723 12.723 12.723h61.777c7.016 0 12.723-5.708 12.723-12.723v-23.038c0-7.015-5.707-12.723-12.723-12.723zm-2.277 33.484h-57.222v-18.483h57.223v18.483z" fill="#023364"/><path d="m227.577 150.87c16.659 0 30.213-13.553 30.213-30.212s-13.554-30.212-30.213-30.212-30.212 13.553-30.212 30.212 13.552 30.212 30.212 30.212zm0-45.424c8.389 0 15.213 6.824 15.213 15.212s-6.824 15.212-15.213 15.212c-8.388 0-15.212-6.824-15.212-15.212s6.824-15.212 15.212-15.212z" fill="#023364"/><path d="m471.938 291.845c-3.025-2.832-7.771-2.674-10.602.35s-2.674 7.77.35 10.601c23.05 21.579 35.744 50.836 35.744 82.382 0 39.871-20.787 74.977-52.092 95.052v-27.555l6.666-9.305c7.116-9.932 10.877-21.641 10.877-33.86v-69.569c0-12.231-9.95-22.182-22.182-22.182-4.063 0-7.872 1.103-11.151 3.019-4.01-5.761-10.676-9.541-18.212-9.541-2.583 0-5.061.448-7.368 1.263-1.39-10.903-10.72-19.362-21.996-19.362-9.408 0-17.461 5.89-20.68 14.173-2.669-1.14-5.604-1.772-8.685-1.772-12.231 0-22.182 9.951-22.182 22.182v26.884c-.637-.055-1.281-.089-1.933-.089-12.231 0-22.183 9.951-22.183 22.182v28.135c0 19.283 7.957 38.024 21.829 51.418l2.286 2.207v25.674c-34.933-19.2-58.663-56.356-58.663-98.953 0-62.217 50.617-112.833 112.834-112.833 18.347 0 36.565 4.509 52.688 13.04 3.665 1.938 8.2.538 10.137-3.122 1.938-3.662.54-8.2-3.121-10.137-18.275-9.669-38.921-14.781-59.703-14.781-58.128 0-107.312 39-122.776 92.206l-16.754-6.836v-30.503c25.28-19.521 40.907-50.03 40.907-83.099v-2.525c18.054-1.066 32.417-16.085 32.417-34.402 0-6.965-2.081-13.451-5.648-18.875l1.145-30.83c7.903-1.868 13.808-8.964 13.808-17.43v-8.785c0-7.957-5.214-14.71-12.402-17.046-.744-26.638-13.576-51.693-35.058-67.886-3.307-2.495-8.01-1.833-10.504 1.474-2.493 3.308-1.833 8.01 1.475 10.504 17.479 13.176 28.062 33.415 29.053 55.028h-16.777c-8.887-22.18-30.59-37.894-55.907-37.894s-47.019 15.714-55.906 37.894h-12.379c-15.639-8.354-25.282-24.37-25.282-42.198v-1.306c0-13.822 5.144-27.093 14.285-37.27l8.73 7.094c3.157 2.564 7.136 3.976 11.202 3.976h59.087c5.935 0 11.885.731 17.686 2.174 4.016.999 8.088-1.448 9.088-5.468s-1.448-8.089-5.469-9.088c-6.983-1.737-14.151-2.617-21.305-2.617h-59.087c-.634 0-1.253-.22-1.744-.619l-13.95-11.34c-2.852-2.316-6.958-2.228-9.705.209-3.988 3.536-7.514 7.489-10.565 11.75-18.888.043-36.502 7.55-49.614 21.157-13.149 13.647-20.002 31.592-19.299 50.529l.544 14.657c-6.171 2.835-10.476 9.059-10.476 16.284v8.785c0 7.819 5.04 14.467 12.035 16.911l1.068 28.731c-4.719 5.898-7.551 13.37-7.551 21.494 0 18.993 15.441 34.445 34.428 34.468v2.758c0 32.654 15.288 62.859 40.058 82.415v30.888l-57.464 23.445c-2.347.958-4.732 2.029-7.292 3.275-3.725 1.813-5.274 6.301-3.462 10.026 1.299 2.667 3.97 4.219 6.75 4.219 1.101 0 2.22-.244 3.276-.758 2.263-1.101 4.354-2.042 6.395-2.874l42.45-17.32 58.189 145.567c1.139 2.849 3.896 4.716 6.964 4.716s5.825-1.868 6.964-4.716l58.189-145.567 4.05 1.653c-1.113 6.771-1.701 13.716-1.701 20.797 0 70.488 57.346 127.834 127.834 127.834 70.487 0 127.833-57.346 127.833-127.834.001-35.223-14.758-69.242-40.491-93.333zm-185.964-134.05v-14.425c0-.133-.013-.262-.02-.394h12.905l-.663 17.855c-3.764-1.718-7.885-2.78-12.222-3.036zm0 53.742v-38.681c9.771 1.031 17.417 9.291 17.417 19.33 0 10.041-7.644 18.322-17.417 19.351zm23.797-98.198c1.613 0 2.926 1.313 2.926 2.926v8.785c0 1.614-1.313 2.926-2.926 2.926h-22.442c.292-2.401.461-4.84.461-7.319s-.168-4.918-.461-7.319h22.442zm-82.194-37.893c24.931 0 45.213 20.282 45.213 45.212s-20.282 45.212-45.213 45.212c-24.93 0-45.212-20.282-45.212-45.212s20.282-45.212 45.212-45.212zm-59.752 52.531h-96.482c-1.614 0-2.927-1.313-2.927-2.926v-8.785c0-1.614 1.313-2.926 2.927-2.926h96.482c-.292 2.401-.461 4.84-.461 7.319s.169 4.917.461 7.318zm-74.429 29.741c-4.319.005-8.451.815-12.263 2.278l-.633-17.019h12.896zm.053-112.514c8.264-8.576 18.813-14.05 30.327-15.881-3.115 8.054-4.766 16.694-4.766 25.512v1.306c0 15.996 5.915 30.876 16.209 42.198h-56.377l-.504-13.572c-.551-14.828 4.816-28.878 15.111-39.563zm-19.481 146.982c0-10.721 8.711-19.444 19.428-19.467v38.933c-10.716-.022-19.428-8.745-19.428-19.466zm34.428 37.226v-86.436h63.275c8.887 22.18 30.589 37.894 55.906 37.894 17.038 0 32.434-7.125 43.397-18.537v66.781c0 37.99-24.056 72.047-59.858 84.749l-.74.262c-13.703 4.862-28.785 4.831-42.469-.087-35.595-12.793-59.511-46.801-59.511-84.626zm54.438 98.742c8.519 3.062 17.473 4.592 26.43 4.592 8.849 0 17.699-1.495 26.126-4.485l.74-.262c4.84-1.717 9.487-3.782 13.937-6.137v24.117l-30.288 26.03c-6.196 5.327-15.511 5.29-21.666-.084l-29.659-25.893v-24.321c4.581 2.481 9.379 4.646 14.38 6.443zm26.426 157.152-51.265-128.244.193-.079 30.059 26.242c5.901 5.151 13.324 7.729 20.749 7.729 7.342 0 14.686-2.521 20.56-7.569l30.739-26.417.23.094zm258.621-75.797c0 4.98-.847 9.844-2.481 14.439h-10.885c-4.143 0-7.5 3.358-7.5 7.5s3.357 7.5 7.5 7.5h2.204l-4.979 6.95c-.913 1.273-1.403 2.801-1.403 4.368v4.545h-30.702c-5.604 0-10.164-4.56-10.164-10.164v-1.536c0-5.604 4.56-10.164 10.164-10.164 4.143 0 7.5-3.358 7.5-7.5v-8.09c0-5.112 4.159-9.271 9.271-9.271h31.474v1.423zm-121.807 17.93h11.853c3.96 0 7.182 3.222 7.182 7.182v5.97c0 3.065-1.933 5.68-4.641 6.709l-1.907-1.841c-5.336-5.15-9.553-11.306-12.487-18.02zm19.352 63.557v-29.544c8.549-3.082 14.682-11.262 14.682-20.86v-5.97c0-12.231-9.95-22.182-22.182-22.182h-16.077c-.346-2.513-.538-5.052-.538-7.607v-28.135c0-3.96 3.222-7.182 7.183-7.182 3.96 0 7.182 3.222 7.182 7.182v25.689c0 4.142 3.357 7.5 7.5 7.5s7.5-3.358 7.5-7.5v-25.689c0-5.448-1.978-10.441-5.249-14.307v-34.67c0-3.96 3.222-7.182 7.182-7.182 3.961 0 7.183 3.222 7.183 7.182v43.791c0 4.142 3.357 7.5 7.5 7.5s7.5-3.358 7.5-7.5v-56.192c0-3.96 3.222-7.182 7.182-7.182s7.182 3.222 7.182 7.182v56.192c0 4.142 3.357 7.5 7.5 7.5s7.5-3.358 7.5-7.5v-38.093c0-3.96 3.222-7.182 7.183-7.182 3.96 0 7.182 3.222 7.182 7.182v38.093c0 4.142 3.357 7.5 7.5 7.5s7.5-3.358 7.5-7.5v-31.571c0-3.96 3.222-7.182 7.182-7.182s7.182 3.222 7.182 7.182v53.145h-31.474c-13.384 0-24.271 10.888-24.271 24.271v1.731c-10.224 3.199-17.664 12.758-17.664 24.023v1.536c0 13.875 11.288 25.164 25.164 25.164h30.702v18.503c-13.989 6.229-29.467 9.698-45.741 9.698-13.77-.001-26.967-2.483-39.175-7.016z" fill="#023364"/></g></svg>
