<?xml version="1.0"?>
<svg xmlns="http://www.w3.org/2000/svg" height="512px" viewBox="0 0 60 56" width="512px"><g id="026---Paramedics"><path id="Shape" d="m56 30h-5v-1c-.0033061-2.7600532-2.2399468-4.9966939-5-5h-5c-2.7600532.0033061-4.9966939 2.2399468-5 5v1h-5c-.5886931.0022858-1.1694628.1358628-1.7.391-.8075359-.6601458-1.3419151-1.5960219-1.5-2.627-.016-.092-.028-.181-.04-.271 1.722776-1.689281 2.9539975-3.8150566 3.562-6.15 1.35-.385 3.666-1.6 3.666-5.413 0-.694 0-2.8-1.417-3.492-.4201089-.1969576-.894507-.2459482-1.346-.139-.033-2.895-.341-5.693-1.08-7.177-2.485-5.064-8.874-5.122-9.145-5.122s-6.66.058-9.15 5.117c-.741 1.483-1.05 4.283-1.082 7.183-.4530021-.1077885-.9291465-.059152-1.351.138-1.417.687-1.417 2.798-1.417 3.492 0 3.82 2.323 5.032 3.671 5.415.6106947 2.3454936 1.8514914 4.4791937 3.588 6.17-.012.083-.023.163-.039.256-.2317124 1.6575309-1.429117 3.0173955-3.044 3.457-.2445565.0586359-.4927851.1007312-.743.126l-3.678.319c-4.95160542.4323015-8.75206466 4.5765602-8.755 9.547 0 4.309 2.94 9.459 7.371 10.662.62396193 1.2936067 1.93277427 2.116422 3.369 2.118h16.816c.7089761 1.2333522 2.0214021 1.9955044 3.444 2h25c2.209139 0 4-1.790861 4-4v-18c0-2.209139-1.790861-4-4-4zm-18-1c0-1.6568542 1.3431458-3 3-3h5c1.6568542 0 3 1.3431458 3 3v1h-11zm-5.31-14.771s.3.293.3 1.7c.1085466 1.1136985-.3178227 2.2128331-1.149 2.962.1984294-1.4759978.3195946-2.9613564.363-4.45.149214-.0969591.3134267-.1685909.486-.212zm-21.69 1.701c-.0650224-.5761955.0286877-1.1592041.271-1.686.1864211.025737.3643791.0941824.52.2.0441587 1.4886377.1656559 2.9739744.364 4.45-.8345322-.7480474-1.2633635-1.8485287-1.155-2.964zm3.439 4.328v-.011c-.841-3.268-1.062-11.7.207-14.243 1.934-3.936 7.302-4.004 7.354-4.004s5.409.046 7.359 4.009c1.264 2.535 1.047 10.931.21 14.214-.006.021-.011.04-.016.061-.469 1.8-2.368 7.5-7.553 7.5-5.208.001-7.1-5.747-7.561-7.526zm-3.699 31.742c-.4639459.0082134-.91130983-.1724688-1.2394205-.5005795-.32811066-.3281107-.50879287-.7754746-.5005795-1.2394205v-5.48c0-.5522847-.44771525-1-1-1s-1 .4477153-1 1v4.858c-3-1.373-5-5.244-5-8.418.00267167-3.9325675 3.00938078-7.21143 6.927-7.554l3.693-.321c.3536527-.0357976.704462-.0956022 1.05-.179 2.1336967-.5716018 3.7998626-2.2389116 4.37-4.373 2.4816359 1.3260656 5.4623837 1.3215607 7.94-.012.3027116 1.1177374.9115838 2.1287146 1.758 2.919-.4788649.6714319-.7368015 1.4752995-.738 2.3v18zm47.26 0c0 1.1045695-.8954305 2-2 2h-25c-1.1045695 0-2-.8954305-2-2v-18c0-1.1045695.8954305-2 2-2h25c1.1045695 0 2 .8954305 2 2z" fill="#023364"/><path id="Shape" d="m52.044 39.8-1.5-2.6c-.2652282-.4596174-.7022422-.7949886-1.2148293-.9322787-.5125872-.13729-1.0587229-.0652432-1.5181707.2002787l-.811.47v-.938c0-1.1045695-.8954305-2-2-2h-3c-1.1045695 0-2 .8954305-2 2v.938l-.812-.469c-.4594478-.2655219-1.0055835-.3375687-1.5181707-.2002787-.5125871.1372901-.9496011.4726613-1.2148293.9322787l-1.5 2.6c-.5524265.9562988-.2251734 2.1793566.731 2.732l.814.467-.813.469c-.9565363.5523008-1.2842587 1.7754394-.732 2.732l1.5 2.6c.5523008.9565363 1.7754394 1.2842587 2.732.732l.813-.471v.938c0 1.1045695.8954305 2 2 2h3c1.1045695 0 2-.8954305 2-2v-.938l.812.469c.4594478.2655219 1.0055835.3375687 1.5181707.2002787.5125871-.1372901.9496011-.4726613 1.2148293-.9322787l1.5-2.6c.5514103-.9565994.2232995-2.1790696-.733-2.731l-.812-.468.813-.469c.9555736-.5526155 1.2827459-1.7749241.731-2.731zm-4.044 4.066 2.312 1.334-1.5 2.6-2.312-1.336c-.3093971-.1786305-.6905896-.1786329-.999989-.0000064-.3093994.1786266-.5000019.5087453-.500011.8660064v2.67h-3v-2.67c-.0000091-.3572611-.1906116-.6873798-.500011-.8660064-.3093994-.1786265-.6905919-.1786241-.999989.0000064l-2.313 1.336-1.5-2.6 2.313-1.334c.3093763-.1786394.499956-.5087526.499956-.866s-.1905797-.6873606-.499956-.866l-2.312-1.334 1.5-2.6 2.312 1.336c.3093971.1786305.6905896.1786329.999989.0000064.3093994-.1786266.5000019-.5087453.500011-.8660064v-2.67h3v2.67c.0000091.3572611.1906116.6873798.500011.8660064.3093994.1786265.6905919.1786241.999989-.0000064l2.312-1.336 1.5 2.6-2.312 1.334c-.3093763.1786394-.499956.5087526-.499956.866s.1905797.6873606.499956.866z" fill="#023364"/><path id="Shape" d="m32 34c-.5522847 0-1 .4477153-1 1v1c0 .5522847.4477153 1 1 1s1-.4477153 1-1v-1c0-.5522847-.4477153-1-1-1z" fill="#023364"/><path id="Shape" d="m32 39c-.5522847 0-1 .4477153-1 1v11c0 .5522847.4477153 1 1 1s1-.4477153 1-1v-11c0-.5522847-.4477153-1-1-1z" fill="#023364"/></g></svg>
