<?xml version="1.0"?>
<svg xmlns="http://www.w3.org/2000/svg" height="512px" viewBox="0 0 128 128" width="512px"><g id="Layer_3" data-name="Layer 3"><path d="m64.238 53.4h1.957a1.75 1.75 0 0 0 0-3.5h-1.877l.7-4.607a1.75 1.75 0 0 0 -3.461-.525l-.71 4.688a3.43 3.43 0 0 0 3.391 3.944z" fill="#023364"/><path d="m118.15 98.96a24.094 24.094 0 0 0 -18.73-12.19l-7.34-.72-.81-.08-6.76-.67a5.213 5.213 0 0 1 -4.69-4.55l-.16-1.25h13.62a15.186 15.186 0 0 0 7.54-1.9 1 1 0 0 0 .21-.1 14.8 14.8 0 0 0 6.76-17.02.351.351 0 0 0 -.04-.09l-4.49-15.11a98.6 98.6 0 0 1 -3.36-14.78 35.384 35.384 0 0 0 -70.09 0 98.458 98.458 0 0 1 -3.35 14.78l-4.52 15.2a14.807 14.807 0 0 0 6.75 17.02 15.329 15.329 0 0 0 7.74 2h11.89l-.16 1.25a5.232 5.232 0 0 1 -4.7 4.55l-5.18.51-2.78.28-6.95.68a24.165 24.165 0 0 0 -21.81 24.06v15.42a1.746 1.746 0 0 0 1.75 1.75h111a1.752 1.752 0 0 0 1.75-1.75v-15.42a24.179 24.179 0 0 0 -3.09-11.87zm-84.87-67.98a31.886 31.886 0 0 1 63.16 0 103.109 103.109 0 0 0 3.46 15.3l4.52 15.2c.01.02.02.05.03.07a11.289 11.289 0 0 1 -5.15 12.91c-.01.01-.02.01-.03.02h-.01a11.888 11.888 0 0 1 -5.98 1.52h-14.07l-.36-2.81a23.614 23.614 0 0 0 7.06-9.5c.27-.66.5-1.29.69-1.91.2-.65.37-1.31.52-1.98l1.18-5.41a8.947 8.947 0 0 0 1.64.17 8.56 8.56 0 0 0 0-17.12 8.3 8.3 0 0 0 -1.17.09 1.747 1.747 0 0 0 -1.51 1.73v1.46c-14.82-3.53-15.78-17.55-15.82-18.16a1.744 1.744 0 0 0 -3.33-.64c-6.79 14.75-27.68 15.55-29.08 15.59a6.973 6.973 0 0 0 -.99-.07 8.545 8.545 0 0 0 -6.68 3.22 89.244 89.244 0 0 0 1.92-9.68zm19.71 13.6a4.159 4.159 0 0 0 2.88-7.16 30.032 30.032 0 0 0 13.03-9.92 25.436 25.436 0 0 0 4.59 8.76 4.161 4.161 0 1 0 4.26 4.16.985.985 0 0 0 -.02-.17 24.771 24.771 0 0 0 9.19 3.99c-.6 3.23-1.39 6.44-2.09 9.65-.43 1.95-.8 3.91-1.29 5.84a20.177 20.177 0 0 1 -39.06.18c-.91-3.47-1.55-7.03-2.32-10.54a44.882 44.882 0 0 1 -1.44-8.44 53.149 53.149 0 0 0 8.18-1.26 3.663 3.663 0 0 0 -.08.75 4.172 4.172 0 0 0 4.17 4.16zm36.06 6.4c.71-3.28 1.64-6.6 1.71-9.98a5.064 5.064 0 0 1 -.82 10.06 5.255 5.255 0 0 1 -.89-.08zm-50.12 0a5.254 5.254 0 0 1 -.89.08 5.064 5.064 0 0 1 -.82-10.06c.06 3.38.99 6.7 1.71 9.98zm-2.5 25.02a11.877 11.877 0 0 1 -5.97-1.52 11.32 11.32 0 0 1 -5.17-13l4.27-14.36a8.576 8.576 0 0 0 8.48 7.44 8.838 8.838 0 0 0 1.63-.17l1.19 5.42c.14.66.32 1.32.52 1.97.19.62.42 1.26.68 1.92a23.674 23.674 0 0 0 7.06 9.49l-.36 2.81zm7.38 12.79a8.711 8.711 0 0 0 7.82-7.6l.41-3.22.33-2.57a24 24 0 0 0 23.24 0l.33 2.57.41 3.22a8.7 8.7 0 0 0 7.82 7.6l2.95.29-8.05 7.64h-28.41l-8.23-7.8zm31.58 11.43-8.29 7.87a3.257 3.257 0 0 1 -4.48 0l-8.29-7.87zm42.35 24.28h-107.5v-13.67a20.617 20.617 0 0 1 18.65-20.58l8.94-.87 22.38 21.24a6.752 6.752 0 0 0 9.3.01l22.22-21.1 7.35.72a20.625 20.625 0 0 1 18.66 20.58z" fill="#023364"/><rect height="5.916" rx="1.75" width="19" x="83.488" y="112.417" fill="#023364"/><path d="m56.074 57.691a1.75 1.75 0 0 0 -.239 2.463 10.374 10.374 0 0 0 8.028 3.346 10.371 10.371 0 0 0 8.026-3.345 1.75 1.75 0 1 0 -2.7-2.225 6.986 6.986 0 0 1 -5.326 2.07 6.983 6.983 0 0 1 -5.326-2.07 1.751 1.751 0 0 0 -2.463-.239z" fill="#023364"/></g></svg>
